<svg id="visual" viewBox="0 0 900 600" width="900" height="600" xmlns="http://www.w3.org/2000/svg" xmlns:xlink="http://www.w3.org/1999/xlink" version="1.1"><rect x="0" y="0" width="900" height="600" fill="#fff"></rect><defs><linearGradient id="grad1_0" x1="33.3%" y1="0%" x2="100%" y2="100%"><stop offset="20%" stop-color="#ffffff" stop-opacity="1"></stop><stop offset="80%" stop-color="#ffffff" stop-opacity="1"></stop></linearGradient></defs><defs><linearGradient id="grad2_0" x1="0%" y1="0%" x2="66.7%" y2="100%"><stop offset="20%" stop-color="#ffffff" stop-opacity="1"></stop><stop offset="80%" stop-color="#ffffff" stop-opacity="1"></stop></linearGradient></defs><g transform="translate(900, 0)"><path d="M0 378.6C-73.3 372.8 -146.7 367 -189.3 327.9C-231.9 288.7 -243.8 216.2 -270.2 156C-296.6 95.8 -337.6 47.9 -378.6 0L0 0Z" fill="#0d6efd"></path></g><g transform="translate(0, 600)"><path d="M0 -378.6C26.3 -300.2 52.6 -221.8 115.5 -200.1C178.4 -178.3 277.9 -213.2 327.9 -189.3C377.8 -165.4 378.2 -82.7 378.6 0L0 0Z" fill="#0d6efd"></path></g></svg>