<svg id="visual" viewBox="0 0 900 600" width="900" height="600" xmlns="http://www.w3.org/2000/svg" xmlns:xlink="http://www.w3.org/1999/xlink" version="1.1"><path d="M0 459L21.5 446.3C43 433.7 86 408.3 128.8 407.7C171.7 407 214.3 431 257.2 429.8C300 428.7 343 402.3 385.8 387C428.7 371.7 471.3 367.3 514.2 378.3C557 389.3 600 415.7 642.8 414.7C685.7 413.7 728.3 385.3 771.2 382.5C814 379.7 857 402.3 878.5 413.7L900 425L900 601L878.5 601C857 601 814 601 771.2 601C728.3 601 685.7 601 642.8 601C600 601 557 601 514.2 601C471.3 601 428.7 601 385.8 601C343 601 300 601 257.2 601C214.3 601 171.7 601 128.8 601C86 601 43 601 21.5 601L0 601Z" fill="#0d6efd"></path><path d="M0 422L21.5 421.7C43 421.3 86 420.7 128.8 428C171.7 435.3 214.3 450.7 257.2 451.2C300 451.7 343 437.3 385.8 429.2C428.7 421 471.3 419 514.2 427.3C557 435.7 600 454.3 642.8 465.2C685.7 476 728.3 479 771.2 476.5C814 474 857 466 878.5 462L900 458L900 601L878.5 601C857 601 814 601 771.2 601C728.3 601 685.7 601 642.8 601C600 601 557 601 514.2 601C471.3 601 428.7 601 385.8 601C343 601 300 601 257.2 601C214.3 601 171.7 601 128.8 601C86 601 43 601 21.5 601L0 601Z" fill="#4c8eff"></path><path d="M0 541L21.5 538C43 535 86 529 128.8 516.5C171.7 504 214.3 485 257.2 485.7C300 486.3 343 506.7 385.8 505.8C428.7 505 471.3 483 514.2 473.3C557 463.7 600 466.3 642.8 480C685.7 493.7 728.3 518.3 771.2 530.5C814 542.7 857 542.3 878.5 542.2L900 542L900 601L878.5 601C857 601 814 601 771.2 601C728.3 601 685.7 601 642.8 601C600 601 557 601 514.2 601C471.3 601 428.7 601 385.8 601C343 601 300 601 257.2 601C214.3 601 171.7 601 128.8 601C86 601 43 601 21.5 601L0 601Z" fill="#7aacff"></path><path d="M0 542L21.5 539.7C43 537.3 86 532.7 128.8 532C171.7 531.3 214.3 534.7 257.2 536.5C300 538.3 343 538.7 385.8 541.2C428.7 543.7 471.3 548.3 514.2 544.2C557 540 600 527 642.8 524.8C685.7 522.7 728.3 531.3 771.2 530.3C814 529.3 857 518.7 878.5 513.3L900 508L900 601L878.5 601C857 601 814 601 771.2 601C728.3 601 685.7 601 642.8 601C600 601 557 601 514.2 601C471.3 601 428.7 601 385.8 601C343 601 300 601 257.2 601C214.3 601 171.7 601 128.8 601C86 601 43 601 21.5 601L0 601Z" fill="#a6c9ff"></path></svg>