<svg id="visual" viewBox="0 0 900 600" width="900" height="600" xmlns="http://www.w3.org/2000/svg" xmlns:xlink="http://www.w3.org/1999/xlink" version="1.1"><rect x="0" y="0" width="900" height="600" fill="#fff"></rect><path d="M0 405L21.5 403.5C43 402 86 399 128.8 399.7C171.7 400.3 214.3 404.7 257.2 419.8C300 435 343 461 385.8 462.7C428.7 464.3 471.3 441.7 514.2 434.3C557 427 600 435 642.8 428.3C685.7 421.7 728.3 400.3 771.2 398C814 395.7 857 412.3 878.5 420.7L900 429L900 601L878.5 601C857 601 814 601 771.2 601C728.3 601 685.7 601 642.8 601C600 601 557 601 514.2 601C471.3 601 428.7 601 385.8 601C343 601 300 601 257.2 601C214.3 601 171.7 601 128.8 601C86 601 43 601 21.5 601L0 601Z" fill="#0066FF" stroke-linecap="round" stroke-linejoin="miter"></path></svg>